# xmcd CD database file
#
# Track frame offsets:
#	150
#	13606
#	27481
#	41835
#	58315
#	74843
#	90424
#	105404
#	129572
#	143036
#	157860
#	173151
#	185110
#	197451
#	209609
#	222863
#	238161
#	253076
#	266797
#	280751
#	292282
#	305433
#	318843
#	333716
#	344325
#
# Disc length: 4754 seconds
#
# Revision: 0
# Processed by: cddbd v1.5.2PL0 Copyright (c) Steve Scherf et al.
# Submitted via: CDex 1.70beta2
#
DISCID=8f129019
DTITLE=Les plus grands artistes de Jazz - CD 2
DYEAR=1900
DGENRE=Jazz
TTITLE0=Duke Ellington and His Orchestra - Take the a' train
TTITLE1=Miles Davis and Charlie Parker - Night in Tunisia
TTITLE2=Count Basie - Jive at five
TTITLE3=Glenn Miller and His Orchestra - In the mood
TTITLE4=Billie Holiday - I'll be seeing you
TTITLE5=Django Reinhardt and Stephane Grapelli - Chicago
TTITLE6=Stan Getz - I've got you under my skin
TTITLE7=Clifford Brown - Lover come back to me
TTITLE8=Louis Armstrong - High society
TTITLE9=Frank Sinatra - Fools rush in
TTITLE10=Ella Fitzgerald - Sentimental journey
TTITLE11=Errol Garner - Honeysuckle rose
TTITLE12=Dizzy Gillespie - Anthropolgy
TTITLE13=Anita O'Day - How high the moon
TTITLE14=Cab Calloway - Willow weep for me
TTITLE15=Charlie Parker - My melancholiy baby
TTITLE16=Buddy Rich - Road 66
TTITLE17=Peggy Lee - Golden earings
TTITLE18=Artie Shaw And His Orchestra and Gramercy Five - Tea for two
TTITLE19=Bing Crosby and Louis ARmstrong - Gone fishin'
TTITLE20=Benny Carter and The Oscar Peterson Trio - I get a kick out of you
TTITLE21=Lena Horne - Mad about the boy
TTITLE22=Dinah Shore - My romance
TTITLE23=Nat King Cole - Sweet georgia brown
TTITLE24=Sidney Bechet - Les oignons
EXTD=
EXTT0=
EXTT1=
EXTT2=
EXTT3=
EXTT4=
EXTT5=
EXTT6=
EXTT7=
EXTT8=
EXTT9=
EXTT10=
EXTT11=
EXTT12=
EXTT13=
EXTT14=
EXTT15=
EXTT16=
EXTT17=
EXTT18=
EXTT19=
EXTT20=
EXTT21=
EXTT22=
EXTT23=
EXTT24=
PLAYORDER=
